<svg xmlns="http://www.w3.org/2000/svg" viewBox="0 0 24 24"><path fill="#181717" d="M12 .7a11.5 11.5 0 0 0-3.64 22.41c.58.11.79-.25.79-.56v-2.23c-3.22.7-3.9-1.37-3.9-1.37-.53-1.34-1.29-1.7-1.29-1.7-1.05-.72.08-.71.08-.71 1.16.08 1.77 1.19 1.77 1.19 1.03 1.77 2.71 1.26 3.37.96.1-.75.4-1.26.73-1.55-2.57-.29-5.27-1.28-5.27-5.68 0-1.25.45-2.28 1.19-3.08-.12-.29-.52-1.46.11-3.04 0 0 .97-.31 3.16 1.18A10.95 10.95 0 0 1 12 6.13c.98 0 1.95.13 2.86.39 2.2-1.49 3.16-1.18 3.16-1.18.63 1.58.23 2.75.11 3.04.74.8 1.19 1.83 1.19 3.08 0 4.41-2.71 5.38-5.29 5.67.42.36.78 1.07.78 2.16v3.26c0 .31.21.68.8.56A11.5 11.5 0 0 0 12 .7Z"/></svg>